<svg width="1000" height="1000" viewBox="0 0 1000 1000" fill="none" xmlns="http://www.w3.org/2000/svg">
<path d="M0 500C0 776.142 223.858 1000 500 1000C776.142 1000 1000 776.142 1000 500C1000 223.858 776.142 0 500 0C223.858 0 0 223.858 0 500Z" fill="#FE8222"/>
<g clip-path="url(#clip0_2_2)">
<g clip-path="url(#clip1_2_2)">
<g clip-path="url(#clip2_2_2)">
<path d="M226.201 592.235L233.525 601.383L229.863 589.489C228.947 584 222.54 590.404 226.201 592.235ZM234.441 586.746C237.187 591.32 239.935 595.894 239.935 600.467C239.935 606.872 245.429 609.615 250.005 611.444C243.595 604.126 239.933 584 234.441 586.746ZM586.021 198.886C601.585 198.886 616.235 197.055 632.716 200.714C673.002 210.777 706.877 230.901 729.767 259.259L793.858 361.714C796.604 387.327 802.098 415.685 801.182 446.787C807.592 446.787 806.676 437.639 814 435.809C806.676 454.105 803.012 476.974 801.182 503.502C796.604 488.866 801.182 466.911 802.098 455.02C795.688 465.083 792.026 457.763 792.026 453.19C792.942 445.872 789.28 446.785 786.532 444.042C776.461 434.894 770.053 424.831 762.729 409.281C767.307 397.39 768.223 380.009 753.573 370.861C748.995 368.118 743.501 363.544 740.755 356.224C737.093 346.162 730.683 334.27 732.513 318.72C733.429 314.146 718.779 328.783 710.539 322.379C674.832 297.681 639.124 269.322 596.093 245.538C573.203 245.538 556.723 237.305 548.483 227.242C541.159 218.094 546.651 206.203 557.639 205.288C564.049 205.288 571.373 203.457 576.867 207.118C577.783 203.459 581.445 198.886 586.021 198.886ZM495.38 177.844L497.212 178.76C506.368 180.59 510.946 193.396 521.016 188.823C521.016 195.227 521.932 201.629 520.1 206.203C517.354 213.52 509.112 213.52 502.704 213.52C441.361 209.862 405.653 235.475 368.116 257.429C358.044 263.833 347.058 268.407 338.816 276.64C299.447 313.231 256.415 347.077 246.343 414.77L238.103 489.781C237.187 498.013 228.031 506.246 229.863 516.309L236.271 561.133C229.861 554.728 226.2 562.963 228.031 566.622C228.947 569.365 232.609 578.513 238.103 570.281C245.427 584.002 252.753 610.53 262.823 622.422C293.953 659.013 334.238 691.943 367.2 724.876C375.44 723.046 381.849 723.046 383.679 717.556C386.425 723.046 380.934 728.535 376.356 729.45C391.005 738.598 407.485 746.83 429.459 748.659C457.843 750.489 484.394 755.063 509.114 761.467C521.932 757.808 534.75 755.978 548.483 755.063C553.061 755.063 555.807 747.745 561.301 745.915L562.217 736.767C567.711 745 566.795 734.024 563.133 728.535C569.543 734.024 571.373 738.598 574.119 742.256C574.119 739.513 581.443 729.45 581.445 741.341L583.275 729.45C586.021 727.619 586.937 739.513 589.685 731.278C592.431 723.046 597.925 729.448 603.419 726.704C601.587 730.363 602.503 737.682 608.911 733.109L616.237 726.704C620.814 737.682 628.138 733.108 631.8 731.278C672.086 705.665 712.371 675.478 750.825 645.291L749.909 657.183L754.487 642.546C759.065 647.12 762.727 643.461 764.559 640.717C770.053 631.57 777.377 622.422 789.28 614.189C774.631 653.524 757.235 684.626 735.261 710.239L726.105 721.217C726.105 727.621 724.273 735.854 716.949 736.767C713.287 737.682 705.961 734.937 700.469 740.426C697.723 744.085 706.879 751.404 699.553 745.915C693.144 741.341 686.736 745.915 679.41 747.745C673.916 749.576 683.072 755.063 684.904 758.722C686.736 762.38 688.566 766.039 687.652 770.615L677.58 759.637C665.678 766.041 658.352 777.932 648.28 787.08C643.702 790.739 645.534 797.143 645.534 802.63C639.124 802.63 631.8 800.8 628.138 804.461C625.392 808.119 626.306 813.608 626.306 819.097C617.151 818.182 616.235 804.461 607.997 807.204C599.757 809.034 590.601 809.948 583.275 814.523C588.769 825.502 574.119 819.097 575.951 820.926C562.217 812.693 550.315 806.289 535.666 811.778C504.536 801.715 466.082 806.289 437.699 809.95C437.699 805.376 438.615 800.802 436.783 799.887C434.951 804.46 429.459 802.63 430.375 802.63C412.979 790.739 395.583 783.419 377.272 773.358C360.792 775.189 345.226 766.954 340.648 762.38C327.83 750.489 313.18 756.891 301.279 754.148C275.643 747.743 266.487 721.215 263.739 702.922C261.907 693.774 254.583 690.115 251.837 691.028C239.935 652.609 221.624 617.848 206.974 582.172C203.312 573.024 204.228 563.876 204.228 553.813C208.806 555.644 213.384 554.728 212.468 548.326C207.89 518.139 196.904 495.27 185 473.315C191.41 442.213 192.324 405.622 206.974 378.179C219.792 353.481 243.597 340.672 260.077 319.633C265.571 312.316 265.571 302.253 271.065 295.851C289.377 277.555 307.688 258.344 327.83 241.879C336.986 234.562 347.972 241.879 361.706 239.135C366.284 222.67 384.595 208.033 401.991 212.607C409.315 214.438 423.965 195.227 428.543 193.396C435.867 190.653 432.205 200.714 432.205 207.118C449.601 193.396 473.406 186.079 495.38 177.844Z" fill="black"/>
<g clip-path="url(#clip3_2_2)">
<g clip-path="url(#clip4_2_2)">
<g clip-path="url(#clip5_2_2)">
<g clip-path="url(#clip6_2_2)">
<g clip-path="url(#clip7_2_2)">
<g clip-path="url(#clip8_2_2)">
<g clip-path="url(#clip9_2_2)">
<path d="M422.909 550.575L418.4 559.317C417.84 560.285 417.241 561.01 416.604 561.493C415.968 561.952 415.14 562.181 414.121 562.181C413.025 562.181 411.764 561.646 410.338 560.577C408.911 559.483 407.09 558.287 404.874 556.989C402.683 555.691 400.047 554.495 396.965 553.4C393.882 552.331 390.138 551.797 385.731 551.797C381.604 551.797 377.949 552.357 374.765 553.476C371.581 554.571 368.919 556.072 366.779 557.981C364.639 559.89 363.035 562.142 361.965 564.738C360.869 567.309 360.322 570.083 360.322 573.061C360.322 576.878 361.264 580.047 363.149 582.566C365.009 585.086 367.492 587.237 370.6 589.018C373.682 590.8 377.185 592.339 381.108 593.637C385.03 594.935 389.042 596.284 393.144 597.684C397.245 599.084 401.257 600.662 405.18 602.418C409.103 604.174 412.605 606.388 415.687 609.06C418.77 611.733 421.253 615.003 423.138 618.872C425.023 622.766 425.966 627.538 425.966 633.188C425.966 639.169 424.947 644.793 422.909 650.061C420.871 655.304 417.891 659.86 413.968 663.728C410.045 667.622 405.231 670.676 399.525 672.89C393.844 675.13 387.374 676.25 380.114 676.25C371.25 676.25 363.175 674.647 355.889 671.44C348.604 668.208 342.376 663.856 337.205 658.384L342.554 649.603C343.064 648.916 343.688 648.331 344.426 647.847C345.165 647.364 345.98 647.122 346.872 647.122C348.196 647.122 349.725 647.847 351.457 649.298C353.164 650.723 355.303 652.288 357.876 653.993C360.474 655.724 363.595 657.302 367.238 658.727C370.906 660.152 375.389 660.865 380.687 660.865C385.069 660.865 388.979 660.267 392.418 659.071C395.857 657.849 398.773 656.144 401.168 653.955C403.562 651.767 405.396 649.145 406.67 646.091C407.943 643.037 408.58 639.627 408.58 635.86C408.58 631.737 407.638 628.352 405.753 625.705C403.868 623.058 401.397 620.844 398.34 619.063C395.283 617.281 391.794 615.779 387.871 614.558C383.973 613.311 379.961 612.038 375.835 610.74C371.734 609.417 367.722 607.902 363.799 606.197C359.901 604.467 356.424 602.24 353.367 599.517C350.311 596.768 347.84 593.345 345.955 589.247C344.07 585.15 343.127 580.072 343.127 574.015C343.127 569.179 344.07 564.509 345.955 560.005C347.84 555.474 350.565 551.466 354.132 547.979C357.698 544.467 362.105 541.667 367.352 539.58C372.6 537.468 378.637 536.412 385.464 536.412C393.08 536.412 400.047 537.634 406.364 540.077C412.681 542.469 418.196 545.969 422.909 550.575ZM524.126 550.575L519.656 559.317C519.07 560.285 518.458 561.01 517.822 561.493C517.185 561.952 516.357 562.181 515.338 562.181C514.268 562.181 513.02 561.646 511.593 560.577C510.141 559.483 508.32 558.287 506.129 556.989C503.939 555.691 501.302 554.495 498.22 553.4C495.112 552.331 491.368 551.797 486.986 551.797C482.834 551.797 479.166 552.357 475.982 553.476C472.798 554.571 470.149 556.072 468.034 557.981C465.895 559.89 464.277 562.142 463.182 564.738C462.112 567.309 461.577 570.083 461.577 573.061C461.577 576.878 462.507 580.047 464.366 582.566C466.251 585.086 468.748 587.237 471.855 589.018C474.938 590.8 478.44 592.339 482.363 593.637C486.26 594.935 490.272 596.284 494.399 597.684C498.5 599.084 502.499 600.662 506.397 602.418C510.32 604.174 513.822 606.388 516.904 609.06C520.012 611.733 522.509 615.003 524.394 618.872C526.253 622.766 527.183 627.538 527.183 633.188C527.183 639.169 526.164 644.793 524.126 650.061C522.088 655.304 519.108 659.86 515.185 663.728C511.288 667.622 506.486 670.676 500.78 672.89C495.074 675.13 488.591 676.25 481.331 676.25C472.492 676.25 464.43 674.647 457.145 671.44C449.834 668.208 443.606 663.856 438.46 658.384L443.81 649.603C444.319 648.916 444.943 648.331 445.682 647.847C446.395 647.364 447.197 647.122 448.089 647.122C449.439 647.122 450.967 647.847 452.674 649.298C454.406 650.723 456.559 652.288 459.132 653.993C461.704 655.724 464.825 657.302 468.493 658.727C472.161 660.152 476.632 660.865 481.905 660.865C486.311 660.865 490.234 660.267 493.673 659.071C497.112 657.849 500.029 656.144 502.423 653.955C504.792 651.767 506.613 649.145 507.887 646.091C509.161 643.037 509.797 639.627 509.797 635.86C509.797 631.737 508.868 628.352 507.008 625.705C505.123 623.058 502.652 620.844 499.596 619.063C496.539 617.281 493.049 615.779 489.126 614.558C485.203 613.311 481.191 612.038 477.09 610.74C472.989 609.417 468.977 607.902 465.054 606.197C461.131 604.467 457.641 602.24 454.585 599.517C451.528 596.768 449.057 593.345 447.172 589.247C445.312 585.15 444.383 580.072 444.383 574.015C444.383 569.179 445.312 564.509 447.172 560.005C449.057 555.474 451.783 551.466 455.349 547.979C458.915 544.467 463.335 541.667 468.608 539.58C473.855 537.468 479.879 536.412 486.681 536.412C494.323 536.412 501.302 537.634 507.62 540.077C513.911 542.469 519.414 545.969 524.126 550.575ZM661.795 537.939V674.723H643.149V612.496H569.404V674.723H550.796V537.939H569.404V598.944H643.149V537.939H661.795Z" fill="black"/>
</g>
</g>
</g>
</g>
<g clip-path="url(#clip10_2_2)">
<g clip-path="url(#clip11_2_2)">
<path d="M460.392 396.817V441.939L499.498 464.496L538.61 441.941V396.817L499.498 374.258L460.392 396.817ZM522.12 432.427L499.498 445.475L476.88 432.427V406.329L499.498 393.28L522.12 406.329V432.427Z" fill="black"/>
<path d="M499.498 322.75L415.742 371.066V467.692L499.498 516.006L583.258 467.692V371.066L499.498 322.75ZM566.15 457.822L499.498 496.269L432.852 457.822V380.93L499.498 342.483L566.15 380.93V457.822Z" fill="black"/>
<path d="M438.147 383.983V454.769L499.498 490.16L560.856 454.769V383.983L499.498 348.592L438.147 383.983ZM543.904 444.995L499.498 470.605L455.098 444.995V393.764L499.498 368.149L543.904 393.764V444.995Z" fill="black"/>
</g>
</g>
</g>
</g>
</g>
</g>
</g>
</g>
<defs>
<clipPath id="clip0_2_2">
<rect width="629" height="707" fill="white" transform="translate(185 146)"/>
</clipPath>
<clipPath id="clip1_2_2">
<rect width="629" height="707" fill="white" transform="translate(185 146)"/>
</clipPath>
<clipPath id="clip2_2_2">
<rect width="629" height="707" fill="white" transform="translate(185 146)"/>
</clipPath>
<clipPath id="clip3_2_2">
<rect width="324.635" height="353.5" fill="white" transform="translate(337.183 322.75)"/>
</clipPath>
<clipPath id="clip4_2_2">
<rect width="324.635" height="353.5" fill="white" transform="translate(337.183 322.75)"/>
</clipPath>
<clipPath id="clip5_2_2">
<rect width="324.635" height="353.5" fill="white" transform="translate(337.183 322.75)"/>
</clipPath>
<clipPath id="clip6_2_2">
<rect width="324.635" height="139.838" fill="white" transform="translate(337.183 536.412)"/>
</clipPath>
<clipPath id="clip7_2_2">
<rect width="324.635" height="139.838" fill="white" transform="translate(337.183 536.412)"/>
</clipPath>
<clipPath id="clip8_2_2">
<rect width="324.635" height="139.838" fill="white" transform="translate(337.183 536.412)"/>
</clipPath>
<clipPath id="clip9_2_2">
<rect width="324.635" height="139.838" fill="white" transform="translate(337.183 536.412)"/>
</clipPath>
<clipPath id="clip10_2_2">
<rect width="167.517" height="193.256" fill="white" transform="translate(415.742 322.75)"/>
</clipPath>
<clipPath id="clip11_2_2">
<rect width="167.517" height="193.256" fill="white" transform="translate(415.742 322.75)"/>
</clipPath>
</defs>
</svg>
